<svg xmlns="http://www.w3.org/2000/svg" shape-rendering="geometricPrecision" text-rendering="geometricPrecision" image-rendering="optimizeQuality" fill-rule="evenodd" clip-rule="evenodd" viewBox="0 0 512 247.321"><path fill="#0C6EB7" fill-rule="nonzero" d="M37.339 0h437.322C495.21 0 512 16.789 512 37.339v172.643c0 20.552-16.788 37.339-37.339 37.339H37.339C16.786 247.321 0 230.535 0 209.982V37.339C0 16.786 16.786 0 37.339 0z"/><path fill="#309EFF" d="M37.339 7.507h437.322c16.408 0 29.832 13.428 29.832 29.832v172.643c0 16.408-13.424 29.832-29.832 29.832H37.339c-16.408 0-29.832-13.424-29.832-29.832V37.339c0-16.408 13.424-29.832 29.832-29.832z"/><path fill="#0C6EB7" fill-rule="nonzero" d="M50.668 45.126H83.04a6.006 6.006 0 016.005 6.006v27.293a6.006 6.006 0 01-6.005 6.005H50.668a6.006 6.006 0 01-6.006-6.005V51.132a6.007 6.007 0 016.006-6.006zm320.536 118.692h32.372a6.006 6.006 0 016.005 6.005v27.294a6.007 6.007 0 01-6.005 6.005h-32.372a6.007 6.007 0 01-6.006-6.005v-27.294a6.006 6.006 0 016.006-6.005zm-64.107 0h32.371a6.006 6.006 0 016.006 6.005v27.294a6.007 6.007 0 01-6.006 6.005h-32.371a6.007 6.007 0 01-6.006-6.005v-27.294a6.006 6.006 0 016.006-6.005zm-192.322 0h160.584c3.283 0 5.945 2.689 5.945 6.005v27.294c0 3.315-2.662 6.005-5.945 6.005H114.775c-3.283 0-5.946-2.69-5.946-6.005v-27.294c0-3.316 2.663-6.005 5.946-6.005zm-64.107 0H83.04a6.006 6.006 0 016.005 6.005v27.294a6.006 6.006 0 01-6.005 6.005H50.668a6.007 6.007 0 01-6.006-6.005v-27.294a6.006 6.006 0 016.006-6.005zm320.536-59.029h32.372a6.007 6.007 0 016.005 6.006v27.293a6.007 6.007 0 01-6.005 6.006h-32.372a6.007 6.007 0 01-6.006-6.006v-27.293a6.007 6.007 0 016.006-6.006zm-64.107 0h32.371a6.007 6.007 0 016.006 6.006v27.293a6.007 6.007 0 01-6.006 6.006h-32.371a6.007 6.007 0 01-6.006-6.006v-27.293a6.007 6.007 0 016.006-6.006zm-64.107 0h32.371a6.007 6.007 0 016.006 6.006v27.293a6.007 6.007 0 01-6.006 6.006H242.99a6.007 6.007 0 01-6.006-6.006v-27.293a6.007 6.007 0 016.006-6.006zm-64.107 0h32.371a6.007 6.007 0 016.006 6.006v27.293a6.007 6.007 0 01-6.006 6.006h-32.371a6.007 6.007 0 01-6.006-6.006v-27.293a6.007 6.007 0 016.006-6.006zm-64.108 0h32.372a6.006 6.006 0 016.005 6.006v27.293a6.006 6.006 0 01-6.005 6.006h-32.372a6.007 6.007 0 01-6.006-6.006v-27.293a6.007 6.007 0 016.006-6.006zm-64.107 0H83.04a6.006 6.006 0 016.005 6.006v27.293a6.006 6.006 0 01-6.005 6.006H50.668a6.007 6.007 0 01-6.006-6.006v-27.293a6.007 6.007 0 016.006-6.006zm384.643-.646h32.372c3.288 0 5.957 2.695 5.957 6.018v86.321c0 3.323-2.669 6.017-5.957 6.017h-32.372c-3.289 0-5.957-2.694-5.957-6.017v-86.321c0-3.323 2.668-6.018 5.957-6.018zm0-59.017h32.372a6.006 6.006 0 016.005 6.006v27.293a6.006 6.006 0 01-6.005 6.005h-32.372a6.006 6.006 0 01-6.005-6.005V51.132a6.006 6.006 0 016.005-6.006zm-64.107 0h32.372a6.007 6.007 0 016.005 6.006v27.293a6.006 6.006 0 01-6.005 6.005h-32.372a6.006 6.006 0 01-6.006-6.005V51.132a6.007 6.007 0 016.006-6.006zm-64.107 0h32.371a6.007 6.007 0 016.006 6.006v27.293a6.006 6.006 0 01-6.006 6.005h-32.371a6.006 6.006 0 01-6.006-6.005V51.132a6.007 6.007 0 016.006-6.006zm-64.107 0h32.371a6.007 6.007 0 016.006 6.006v27.293a6.006 6.006 0 01-6.006 6.005H242.99a6.006 6.006 0 01-6.006-6.005V51.132a6.007 6.007 0 016.006-6.006zm-64.107 0h32.371a6.007 6.007 0 016.006 6.006v27.293a6.006 6.006 0 01-6.006 6.005h-32.371a6.006 6.006 0 01-6.006-6.005V51.132a6.007 6.007 0 016.006-6.006zm-64.108 0h32.372a6.006 6.006 0 016.005 6.006v27.293a6.006 6.006 0 01-6.005 6.005h-32.372a6.006 6.006 0 01-6.006-6.005V51.132a6.007 6.007 0 016.006-6.006z"/><path fill="#F2F2F2" fill-rule="nonzero" d="M49.168 40.623h32.371a6.007 6.007 0 016.006 6.006v27.292a6.007 6.007 0 01-6.006 6.006H49.168a6.007 6.007 0 01-6.006-6.006V46.629a6.007 6.007 0 016.006-6.006zm320.536 118.691h32.371a6.008 6.008 0 016.006 6.007v27.292a6.007 6.007 0 01-6.006 6.006h-32.371a6.007 6.007 0 01-6.006-6.006v-27.292a6.008 6.008 0 016.006-6.007zm-64.108 0h32.372a6.008 6.008 0 016.006 6.007v27.292a6.007 6.007 0 01-6.006 6.006h-32.372a6.007 6.007 0 01-6.005-6.006v-27.292a6.007 6.007 0 016.005-6.007zm-192.321 0h160.584c3.283 0 5.945 2.69 5.945 6.007v27.292c0 3.316-2.662 6.006-5.945 6.006H113.275c-3.283 0-5.946-2.69-5.946-6.006v-27.292c0-3.317 2.663-6.007 5.946-6.007zm-64.107 0h32.371a6.008 6.008 0 016.006 6.007v27.292a6.007 6.007 0 01-6.006 6.006H49.168a6.007 6.007 0 01-6.006-6.006v-27.292a6.008 6.008 0 016.006-6.007zm320.536-59.028h32.371a6.007 6.007 0 016.006 6.006v27.293a6.006 6.006 0 01-6.006 6.005h-32.371a6.006 6.006 0 01-6.006-6.005v-27.293a6.007 6.007 0 016.006-6.006zm-64.108 0h32.372a6.007 6.007 0 016.006 6.006v27.293a6.006 6.006 0 01-6.006 6.005h-32.372a6.006 6.006 0 01-6.005-6.005v-27.293a6.007 6.007 0 016.005-6.006zm-64.107 0h32.372a6.007 6.007 0 016.006 6.006v27.293a6.006 6.006 0 01-6.006 6.005h-32.372a6.006 6.006 0 01-6.005-6.005v-27.293a6.006 6.006 0 016.005-6.006zm-64.107 0h32.372a6.006 6.006 0 016.005 6.006v27.293a6.006 6.006 0 01-6.005 6.005h-32.372a6.006 6.006 0 01-6.006-6.005v-27.293a6.007 6.007 0 016.006-6.006zm-64.107 0h32.371a6.007 6.007 0 016.006 6.006v27.293a6.006 6.006 0 01-6.006 6.005h-32.371a6.006 6.006 0 01-6.006-6.005v-27.293a6.007 6.007 0 016.006-6.006zm-64.107 0h32.371a6.007 6.007 0 016.006 6.006v27.293a6.006 6.006 0 01-6.006 6.005H49.168a6.006 6.006 0 01-6.006-6.005v-27.293a6.007 6.007 0 016.006-6.006zm384.643-.646h32.371c3.289 0 5.957 2.694 5.957 6.017v86.322c0 3.323-2.668 6.017-5.957 6.017h-32.371c-3.289 0-5.957-2.694-5.957-6.017v-86.322c0-3.323 2.668-6.017 5.957-6.017zm0-59.017h32.371a6.007 6.007 0 016.006 6.006v27.292a6.007 6.007 0 01-6.006 6.006h-32.371a6.007 6.007 0 01-6.006-6.006V46.629a6.007 6.007 0 016.006-6.006zm-64.107 0h32.371a6.007 6.007 0 016.006 6.006v27.292a6.007 6.007 0 01-6.006 6.006h-32.371a6.007 6.007 0 01-6.006-6.006V46.629a6.007 6.007 0 016.006-6.006zm-64.108 0h32.372a6.007 6.007 0 016.006 6.006v27.292a6.007 6.007 0 01-6.006 6.006h-32.372a6.006 6.006 0 01-6.005-6.006V46.629a6.007 6.007 0 016.005-6.006zm-64.107 0h32.372a6.007 6.007 0 016.006 6.006v27.292a6.007 6.007 0 01-6.006 6.006h-32.372a6.006 6.006 0 01-6.005-6.006V46.629a6.006 6.006 0 016.005-6.006zm-64.107 0h32.372a6.006 6.006 0 016.005 6.006v27.292a6.006 6.006 0 01-6.005 6.006h-32.372a6.007 6.007 0 01-6.006-6.006V46.629a6.007 6.007 0 016.006-6.006zm-64.107 0h32.371a6.007 6.007 0 016.006 6.006v27.292a6.007 6.007 0 01-6.006 6.006h-32.371a6.007 6.007 0 01-6.006-6.006V46.629a6.007 6.007 0 016.006-6.006z"/></svg>