<svg xmlns="http://www.w3.org/2000/svg" shape-rendering="geometricPrecision" text-rendering="geometricPrecision" image-rendering="optimizeQuality" fill-rule="evenodd" clip-rule="evenodd" viewBox="0 0 512 173.2"><path fill-rule="nonzero" d="M25.18 1.1h305.58c6.93 0 13.23 2.83 17.79 7.39 4.55 4.56 7.39 10.86 7.39 17.79v120.63c0 6.92-2.84 13.21-7.39 17.78-4.56 4.57-10.86 7.41-17.79 7.41H25.18c-6.93 0-13.23-2.84-17.79-7.4l-.24-.26C2.74 159.9 0 153.71 0 146.91V26.28c0-6.93 2.83-13.23 7.39-17.79C11.95 3.93 18.25 1.1 25.18 1.1zM407.4 70.24h43.63V56.92c-4.14-1.71-7.09-5.81-7.09-10.55V33.23c0-4.74 2.94-8.84 7.09-10.56v-14h-2.29c-11.37 0-21.71 4.65-29.19 12.13-7.49 7.51-12.15 17.84-12.15 29.21v20.23zm52.3 0h43.62V50.01c0-11.38-4.64-21.71-12.13-29.19-7.49-7.5-17.83-12.15-29.2-12.15h-2.29v14.01c4.15 1.72 7.09 5.82 7.09 10.55v13.14c0 4.72-2.95 8.83-7.09 10.55v13.32zm43.62 8.67H407.4v44.28c0 11.36 4.66 21.69 12.15 29.19l.2.22c7.47 7.36 17.72 11.92 28.99 11.92h13.25c11.37 0 21.71-4.64 29.19-12.13 7.5-7.49 12.14-17.83 12.14-29.2V78.91zm-41.33 94.29h-13.25c-13.62 0-26.02-5.53-35.07-14.45l-.25-.24c-9.06-9.06-14.69-21.57-14.69-35.32V50.01c0-13.76 5.63-26.26 14.69-35.32C422.49 5.63 435 0 448.74 0h13.25c13.73 0 26.22 5.62 35.29 14.68l.03.02C506.37 23.77 512 36.27 512 50.01v73.18c0 13.73-5.62 26.22-14.68 35.29l-.03.03c-9.07 9.06-21.56 14.69-35.3 14.69zM32.28 29.97h22.61c3.1 0 5.6 2.5 5.6 5.6v19.07c0 3.09-2.5 5.59-5.6 5.59H32.28c-3.09 0-5.6-2.5-5.6-5.59V35.57c0-3.1 2.51-5.6 5.6-5.6zm223.97 82.93h22.62c3.09 0 5.6 2.51 5.6 5.6v19.07c0 3.09-2.51 5.6-5.6 5.6h-22.62c-3.09 0-5.6-2.51-5.6-5.6V118.5c0-3.09 2.51-5.6 5.6-5.6zm-44.8 0h22.62c3.09 0 5.6 2.51 5.6 5.6v19.07c0 3.09-2.51 5.6-5.6 5.6h-22.62c-3.09 0-5.59-2.51-5.59-5.6V118.5c0-3.09 2.5-5.6 5.59-5.6zm-134.38 0h112.21c3.05 0 5.53 2.51 5.53 5.6v19.07c0 3.09-2.48 5.6-5.53 5.6H77.07c-3.06 0-5.54-2.51-5.54-5.6V118.5c0-3.09 2.48-5.6 5.54-5.6zm-44.79 0h22.61c3.1 0 5.6 2.51 5.6 5.6v19.07c0 3.09-2.5 5.6-5.6 5.6H32.28c-3.09 0-5.6-2.51-5.6-5.6V118.5c0-3.09 2.51-5.6 5.6-5.6zm223.97-41.24h22.62c3.09 0 5.6 2.5 5.6 5.6v19.06c0 3.09-2.51 5.6-5.6 5.6h-22.62c-3.09 0-5.6-2.51-5.6-5.6V77.26c0-3.1 2.51-5.6 5.6-5.6zm-44.8 0h22.62c3.09 0 5.6 2.5 5.6 5.6v19.06c0 3.09-2.51 5.6-5.6 5.6h-22.62c-3.09 0-5.59-2.51-5.59-5.6V77.26c0-3.1 2.5-5.6 5.59-5.6zm-44.79 0h22.62c3.09 0 5.6 2.5 5.6 5.6v19.06c0 3.09-2.51 5.6-5.6 5.6h-22.62c-3.09 0-5.6-2.51-5.6-5.6V77.26c0-3.1 2.51-5.6 5.6-5.6zm-44.79 0h22.61c3.1 0 5.6 2.5 5.6 5.6v19.06c0 3.09-2.5 5.6-5.6 5.6h-22.61c-3.09 0-5.6-2.51-5.6-5.6V77.26c0-3.1 2.51-5.6 5.6-5.6zm-44.8 0h22.62c3.09 0 5.6 2.5 5.6 5.6v19.06c0 3.09-2.51 5.6-5.6 5.6H77.07c-3.09 0-5.6-2.51-5.6-5.6V77.26c0-3.1 2.51-5.6 5.6-5.6zm-44.79 0h22.61c3.1 0 5.6 2.5 5.6 5.6v19.06c0 3.09-2.5 5.6-5.6 5.6H32.28c-3.09 0-5.6-2.51-5.6-5.6V77.26c0-3.1 2.51-5.6 5.6-5.6zm268.76-.51h22.62c3.1 0 5.61 2.53 5.61 5.66v60.32c0 3.12-2.51 5.66-5.61 5.66h-22.62c-3.09 0-5.6-2.54-5.6-5.66V76.81c0-3.13 2.51-5.66 5.6-5.66zm0-41.18h22.62c3.09 0 5.6 2.5 5.6 5.6v19.07c0 3.09-2.51 5.59-5.6 5.59h-22.62c-3.09 0-5.59-2.5-5.59-5.59V35.57c0-3.1 2.5-5.6 5.59-5.6zm-44.79 0h22.62c3.09 0 5.6 2.5 5.6 5.6v19.07c0 3.09-2.51 5.59-5.6 5.59h-22.62c-3.09 0-5.6-2.5-5.6-5.59V35.57c0-3.1 2.51-5.6 5.6-5.6zm-44.8 0h22.62c3.09 0 5.6 2.5 5.6 5.6v19.07c0 3.09-2.51 5.59-5.6 5.59h-22.62c-3.09 0-5.59-2.5-5.59-5.59V35.57c0-3.1 2.5-5.6 5.59-5.6zm-44.79 0h22.62c3.09 0 5.6 2.5 5.6 5.6v19.07c0 3.09-2.51 5.59-5.6 5.59h-22.62c-3.09 0-5.6-2.5-5.6-5.59V35.57c0-3.1 2.51-5.6 5.6-5.6zm-44.79 0h22.61c3.1 0 5.6 2.5 5.6 5.6v19.07c0 3.09-2.5 5.59-5.6 5.59h-22.61c-3.09 0-5.6-2.5-5.6-5.59V35.57c0-3.1 2.51-5.6 5.6-5.6zm-44.8 0h22.62c3.09 0 5.6 2.5 5.6 5.6v19.07c0 3.09-2.51 5.59-5.6 5.59H77.07c-3.09 0-5.6-2.5-5.6-5.59V35.57c0-3.1 2.51-5.6 5.6-5.6zm253.69-20.2H25.18c-4.53 0-8.66 1.86-11.65 4.86-3 2.99-4.86 7.12-4.86 11.65v120.63c0 4.44 1.78 8.49 4.65 11.47l.21.19c2.99 2.99 7.12 4.85 11.65 4.85h305.58c4.53 0 8.66-1.86 11.65-4.85 3-2.98 4.86-7.12 4.86-11.66V26.28c0-4.53-1.86-8.66-4.86-11.65-2.99-3-7.12-4.86-11.65-4.86z"/></svg>