<svg xmlns="http://www.w3.org/2000/svg" shape-rendering="geometricPrecision" text-rendering="geometricPrecision" image-rendering="optimizeQuality" fill-rule="evenodd" clip-rule="evenodd" viewBox="0 0 512 173.674"><path fill="#0C6EB7" fill-rule="nonzero" d="M26.894 1.337h314.995c7.401 0 14.126 3.026 18.997 7.897 4.872 4.872 7.897 11.599 7.897 18.998v117.863c0 14.8-12.094 26.894-26.894 26.894H26.894C12.093 172.989 0 160.896 0 146.095V28.232C0 13.428 12.09 1.337 26.894 1.337z"/><path fill="#309EFF" d="M26.894 6.745h314.995c11.818 0 21.487 9.675 21.487 21.487v117.863c0 11.815-9.672 21.487-21.487 21.487H26.894c-11.815 0-21.487-9.669-21.487-21.487V28.232c0-11.819 9.669-21.487 21.487-21.487z"/><path fill="#0C6EB7" fill-rule="nonzero" d="M34.748 33.301h23.316a4.326 4.326 0 014.326 4.325v19.659a4.327 4.327 0 01-4.326 4.326H34.748a4.328 4.328 0 01-4.326-4.326V37.626a4.327 4.327 0 014.326-4.325zm230.876 85.491h23.316a4.326 4.326 0 014.326 4.326v19.658a4.326 4.326 0 01-4.326 4.326h-23.316a4.327 4.327 0 01-4.326-4.326v-19.658a4.327 4.327 0 014.326-4.326zm-46.175 0h23.316a4.326 4.326 0 014.326 4.326v19.658a4.326 4.326 0 01-4.326 4.326h-23.316a4.326 4.326 0 01-4.326-4.326v-19.658a4.326 4.326 0 014.326-4.326zm-138.526 0h115.666c2.364 0 4.282 1.937 4.282 4.326v19.658c0 2.389-1.918 4.326-4.282 4.326H80.923c-2.364 0-4.282-1.937-4.282-4.326v-19.658c0-2.389 1.918-4.326 4.282-4.326zm-46.175 0h23.316a4.326 4.326 0 014.326 4.326v19.658a4.326 4.326 0 01-4.326 4.326H34.748a4.327 4.327 0 01-4.326-4.326v-19.658a4.327 4.327 0 014.326-4.326zm230.876-42.517h23.316a4.326 4.326 0 014.326 4.326v19.658a4.326 4.326 0 01-4.326 4.326h-23.316a4.327 4.327 0 01-4.326-4.326V80.601a4.327 4.327 0 014.326-4.326zm-46.175 0h23.316a4.326 4.326 0 014.326 4.326v19.658a4.326 4.326 0 01-4.326 4.326h-23.316a4.326 4.326 0 01-4.326-4.326V80.601a4.326 4.326 0 014.326-4.326zm-46.175 0h23.316a4.326 4.326 0 014.326 4.326v19.658a4.326 4.326 0 01-4.326 4.326h-23.316a4.326 4.326 0 01-4.326-4.326V80.601a4.326 4.326 0 014.326-4.326zm-46.175 0h23.316a4.326 4.326 0 014.326 4.326v19.658a4.326 4.326 0 01-4.326 4.326h-23.316a4.326 4.326 0 01-4.326-4.326V80.601a4.326 4.326 0 014.326-4.326zm-46.176 0h23.317a4.327 4.327 0 014.326 4.326v19.658a4.327 4.327 0 01-4.326 4.326H80.923a4.327 4.327 0 01-4.326-4.326V80.601a4.327 4.327 0 014.326-4.326zm-46.175 0h23.316a4.326 4.326 0 014.326 4.326v19.658a4.326 4.326 0 01-4.326 4.326H34.748a4.327 4.327 0 01-4.326-4.326V80.601a4.327 4.327 0 014.326-4.326zm277.051-.465h23.317c2.369 0 4.291 1.94 4.291 4.334v62.175c0 2.394-1.922 4.334-4.291 4.334h-23.317c-2.369 0-4.291-1.94-4.291-4.334V80.144c0-2.394 1.922-4.334 4.291-4.334zm0-42.509h23.317a4.327 4.327 0 014.326 4.325v19.659a4.328 4.328 0 01-4.326 4.326h-23.317a4.328 4.328 0 01-4.326-4.326V37.626a4.327 4.327 0 014.326-4.325zm-46.175 0h23.316a4.326 4.326 0 014.326 4.325v19.659a4.327 4.327 0 01-4.326 4.326h-23.316a4.328 4.328 0 01-4.326-4.326V37.626a4.327 4.327 0 014.326-4.325zm-46.175 0h23.316a4.326 4.326 0 014.326 4.325v19.659a4.327 4.327 0 01-4.326 4.326h-23.316a4.327 4.327 0 01-4.326-4.326V37.626a4.326 4.326 0 014.326-4.325zm-46.175 0h23.316a4.326 4.326 0 014.326 4.325v19.659a4.327 4.327 0 01-4.326 4.326h-23.316a4.327 4.327 0 01-4.326-4.326V37.626a4.326 4.326 0 014.326-4.325zm-46.175 0h23.316a4.326 4.326 0 014.326 4.325v19.659a4.327 4.327 0 01-4.326 4.326h-23.316a4.327 4.327 0 01-4.326-4.326V37.626a4.326 4.326 0 014.326-4.325zm-46.176 0h23.317a4.327 4.327 0 014.326 4.325v19.659a4.328 4.328 0 01-4.326 4.326H80.923a4.328 4.328 0 01-4.326-4.326V37.626a4.327 4.327 0 014.326-4.325z"/><path fill="#F2F2F2" fill-rule="nonzero" d="M33.668 30.057h23.316a4.326 4.326 0 014.326 4.326v19.658a4.326 4.326 0 01-4.326 4.326H33.668a4.326 4.326 0 01-4.326-4.326V34.383a4.326 4.326 0 014.326-4.326zm230.876 85.491h23.316a4.327 4.327 0 014.326 4.326v19.658a4.327 4.327 0 01-4.326 4.327h-23.316a4.327 4.327 0 01-4.326-4.327v-19.658a4.327 4.327 0 014.326-4.326zm-46.176 0h23.317a4.328 4.328 0 014.326 4.326v19.658a4.328 4.328 0 01-4.326 4.327h-23.317a4.328 4.328 0 01-4.326-4.327v-19.658a4.328 4.328 0 014.326-4.326zm-138.525 0h115.665c2.365 0 4.283 1.938 4.283 4.326v19.658c0 2.389-1.918 4.327-4.283 4.327H79.843c-2.365 0-4.283-1.938-4.283-4.327v-19.658c0-2.388 1.918-4.326 4.283-4.326zm-46.175 0h23.316a4.327 4.327 0 014.326 4.326v19.658a4.327 4.327 0 01-4.326 4.327H33.668a4.327 4.327 0 01-4.326-4.327v-19.658a4.327 4.327 0 014.326-4.326zm230.876-42.517h23.316a4.326 4.326 0 014.326 4.326v19.658a4.326 4.326 0 01-4.326 4.326h-23.316a4.326 4.326 0 01-4.326-4.326V77.357a4.326 4.326 0 014.326-4.326zm-46.176 0h23.317a4.327 4.327 0 014.326 4.326v19.658a4.327 4.327 0 01-4.326 4.326h-23.317a4.327 4.327 0 01-4.326-4.326V77.357a4.327 4.327 0 014.326-4.326zm-46.175 0h23.316a4.327 4.327 0 014.327 4.326v19.658a4.327 4.327 0 01-4.327 4.326h-23.316a4.327 4.327 0 01-4.326-4.326V77.357a4.327 4.327 0 014.326-4.326zm-46.175 0h23.316a4.326 4.326 0 014.326 4.326v19.658a4.326 4.326 0 01-4.326 4.326h-23.316a4.326 4.326 0 01-4.326-4.326V77.357a4.326 4.326 0 014.326-4.326zm-46.175 0h23.316a4.326 4.326 0 014.326 4.326v19.658a4.326 4.326 0 01-4.326 4.326H79.843a4.326 4.326 0 01-4.326-4.326V77.357a4.326 4.326 0 014.326-4.326zm-46.175 0h23.316a4.326 4.326 0 014.326 4.326v19.658a4.326 4.326 0 01-4.326 4.326H33.668a4.326 4.326 0 01-4.326-4.326V77.357a4.326 4.326 0 014.326-4.326zm277.051-.465h23.316c2.369 0 4.291 1.941 4.291 4.334v62.176c0 2.393-1.922 4.334-4.291 4.334h-23.316c-2.369 0-4.291-1.941-4.291-4.334V76.9c0-2.393 1.922-4.334 4.291-4.334zm0-42.509h23.316a4.326 4.326 0 014.326 4.326v19.658a4.326 4.326 0 01-4.326 4.326h-23.316a4.326 4.326 0 01-4.326-4.326V34.383a4.326 4.326 0 014.326-4.326zm-46.175 0h23.316a4.326 4.326 0 014.326 4.326v19.658a4.326 4.326 0 01-4.326 4.326h-23.316a4.326 4.326 0 01-4.326-4.326V34.383a4.326 4.326 0 014.326-4.326zm-46.176 0h23.317a4.327 4.327 0 014.326 4.326v19.658a4.327 4.327 0 01-4.326 4.326h-23.317a4.327 4.327 0 01-4.326-4.326V34.383a4.327 4.327 0 014.326-4.326zm-46.175 0h23.316a4.327 4.327 0 014.327 4.326v19.658a4.327 4.327 0 01-4.327 4.326h-23.316a4.327 4.327 0 01-4.326-4.326V34.383a4.327 4.327 0 014.326-4.326zm-46.175 0h23.316a4.326 4.326 0 014.326 4.326v19.658a4.326 4.326 0 01-4.326 4.326h-23.316a4.326 4.326 0 01-4.326-4.326V34.383a4.326 4.326 0 014.326-4.326zm-46.175 0h23.316a4.326 4.326 0 014.326 4.326v19.658a4.326 4.326 0 01-4.326 4.326H79.843a4.326 4.326 0 01-4.326-4.326V34.383a4.326 4.326 0 014.326-4.326z"/><path fill="#0C6EB7" fill-rule="nonzero" d="M462.876 173.674H450.4c-13.516 0-25.799-5.524-34.698-14.424-8.901-8.899-14.425-21.184-14.425-34.698V49.124c0-13.516 5.525-25.799 14.425-34.699C424.602 5.526 436.885 0 450.4 0h12.476c13.516 0 25.799 5.525 34.699 14.425C506.474 23.325 512 35.607 512 49.124v75.428c0 13.516-5.526 25.799-14.425 34.698-8.9 8.9-21.182 14.424-34.699 14.424z"/><path fill="#9EC4E6" d="M450.4 167.582h12.476c23.669 0 43.031-19.363 43.031-43.03V78.355h-98.538v46.197c0 23.665 19.362 43.03 43.031 43.03z"/><path fill="#B0DAFF" d="M462.59 167.582h.286c23.668 0 43.031-19.363 43.031-43.031V78.364h-92.441v40.094c0 13.516 5.524 25.799 14.425 34.699 8.9 8.899 21.184 14.425 34.699 14.425z"/><path fill="#D4DDE6" d="M505.907 72.263V49.124c0-23.669-19.363-43.031-43.031-43.031h-12.477c-23.668 0-43.03 19.362-43.03 43.031v23.139h98.538z"/><path fill="#EBF5FF" d="M505.907 72.263V49.124c0-23.669-19.363-43.031-43.031-43.031h-12.477c-2.042 0-4.051.147-6.02.426a49.404 49.404 0 00-16.488 10.908c-8.901 8.9-14.425 21.183-14.425 34.699v20.137h92.441z"/><path fill="#0C6EB7" d="M460.415 25.387c3.258 1.46 5.542 4.742 5.542 8.511v14.901c0 3.766-2.29 7.044-5.542 8.507v17.016h-7.553V57.309c-3.252-1.458-5.542-4.73-5.542-8.51V33.898c0-3.783 2.284-7.058 5.542-8.514l-.001-22.043h7.558l-.004 22.046z"/></svg>